<svg width="86" height="86" viewBox="0 0 86 86" fill="none" xmlns="http://www.w3.org/2000/svg">
<circle cx="42.9999" cy="42.9999" r="42.9999" fill="#F7F6F6"/>
<rect x="21.2345" y="42.469" width="22.2962" height="22.2962" rx="2" fill="black"/>
<path d="M43.531 0.832726C43.531 0.372824 43.9038 0 44.3637 0V0C67.3588 0 86 18.6412 86 41.6363V41.6363C86 42.0962 85.6272 42.469 85.1673 42.469H45.531C44.4264 42.469 43.531 41.5736 43.531 40.469V0.832726Z" fill="black"/>
<path d="M78.5934 64.7697C79.2659 64.7698 79.6742 65.5112 79.3149 66.0797C71.9154 77.7839 59.2985 85.1719 45.4705 85.8977L44.4655 85.9504C43.9547 85.9772 43.5259 85.5702 43.526 85.0587L43.5323 66.7624C43.5327 65.6579 44.4283 64.7629 45.5327 64.7631L78.5934 64.7697Z" fill="black"/>
</svg>
